<svg xmlns="http://www.w3.org/2000/svg" viewBox="0 0 1200 630" width="1200" height="630">
  <defs>
    <linearGradient id="bg" x1="0%" y1="0%" x2="100%" y2="100%">
      <stop offset="0%" style="stop-color:#f8faf9"/>
      <stop offset="100%" style="stop-color:#f0f9f4"/>
    </linearGradient>
  </defs>

  <rect width="1200" height="630" fill="url(#bg)"/>

  <!-- Layer 1 -->
  <circle cx="420" cy="160" r="10" fill="none" stroke="#10b981" stroke-width="2"/>
  <circle cx="420" cy="240" r="10" fill="none" stroke="#10b981" stroke-width="2"/>
  <circle cx="420" cy="320" r="10" fill="none" stroke="#10b981" stroke-width="2"/>
  <circle cx="420" cy="400" r="10" fill="none" stroke="#10b981" stroke-width="2"/>
  <circle cx="420" cy="480" r="10" fill="none" stroke="#10b981" stroke-width="2"/>

  <!-- Layer 2 -->
  <circle cx="600" cy="200" r="14" fill="#10b981" fill-opacity="0.15" stroke="#10b981" stroke-width="2"/>
  <circle cx="600" cy="315" r="14" fill="#10b981" fill-opacity="0.15" stroke="#10b981" stroke-width="2"/>
  <circle cx="600" cy="430" r="14" fill="#10b981" fill-opacity="0.15" stroke="#10b981" stroke-width="2"/>

  <!-- Layer 3 -->
  <circle cx="780" cy="255" r="18" fill="#10b981" fill-opacity="0.25" stroke="#10b981" stroke-width="2.5"/>
  <circle cx="780" cy="375" r="18" fill="#10b981" fill-opacity="0.25" stroke="#10b981" stroke-width="2.5"/>

  <!-- Connections L1→L2 -->
  <line x1="430" y1="160" x2="586" y2="200" stroke="#10b981" stroke-width="1" stroke-opacity="0.3"/>
  <line x1="430" y1="160" x2="586" y2="315" stroke="#10b981" stroke-width="1" stroke-opacity="0.15"/>
  <line x1="430" y1="240" x2="586" y2="200" stroke="#10b981" stroke-width="1" stroke-opacity="0.3"/>
  <line x1="430" y1="240" x2="586" y2="315" stroke="#10b981" stroke-width="1" stroke-opacity="0.3"/>
  <line x1="430" y1="320" x2="586" y2="200" stroke="#10b981" stroke-width="1" stroke-opacity="0.15"/>
  <line x1="430" y1="320" x2="586" y2="315" stroke="#10b981" stroke-width="1.5" stroke-opacity="0.4"/>
  <line x1="430" y1="320" x2="586" y2="430" stroke="#10b981" stroke-width="1" stroke-opacity="0.15"/>
  <line x1="430" y1="400" x2="586" y2="315" stroke="#10b981" stroke-width="1" stroke-opacity="0.3"/>
  <line x1="430" y1="400" x2="586" y2="430" stroke="#10b981" stroke-width="1" stroke-opacity="0.3"/>
  <line x1="430" y1="480" x2="586" y2="430" stroke="#10b981" stroke-width="1" stroke-opacity="0.3"/>
  <line x1="430" y1="480" x2="586" y2="315" stroke="#10b981" stroke-width="1" stroke-opacity="0.1"/>

  <!-- Connections L2→L3 -->
  <line x1="614" y1="200" x2="762" y2="255" stroke="#10b981" stroke-width="1.5" stroke-opacity="0.4"/>
  <line x1="614" y1="200" x2="762" y2="375" stroke="#10b981" stroke-width="1" stroke-opacity="0.2"/>
  <line x1="614" y1="315" x2="762" y2="255" stroke="#10b981" stroke-width="1.5" stroke-opacity="0.4"/>
  <line x1="614" y1="315" x2="762" y2="375" stroke="#10b981" stroke-width="1.5" stroke-opacity="0.4"/>
  <line x1="614" y1="430" x2="762" y2="375" stroke="#10b981" stroke-width="1.5" stroke-opacity="0.4"/>
  <line x1="614" y1="430" x2="762" y2="255" stroke="#10b981" stroke-width="1" stroke-opacity="0.2"/>
</svg>
