<svg xmlns="http://www.w3.org/2000/svg" viewBox="0 0 1200 630" width="1200" height="630">
  <defs>
    <linearGradient id="bg" x1="0%" y1="0%" x2="100%" y2="100%">
      <stop offset="0%" style="stop-color:#f8faf9"/>
      <stop offset="100%" style="stop-color:#f0f9f4"/>
    </linearGradient>
  </defs>

  <!-- Background -->
  <rect width="1200" height="630" fill="url(#bg)"/>

  <!-- Neural-net nodes — right column decorative -->
  <!-- Layer 1 -->
  <circle cx="780" cy="160" r="10" fill="none" stroke="#10b981" stroke-width="2"/>
  <circle cx="780" cy="240" r="10" fill="none" stroke="#10b981" stroke-width="2"/>
  <circle cx="780" cy="320" r="10" fill="none" stroke="#10b981" stroke-width="2"/>
  <circle cx="780" cy="400" r="10" fill="none" stroke="#10b981" stroke-width="2"/>
  <circle cx="780" cy="480" r="10" fill="none" stroke="#10b981" stroke-width="2"/>

  <!-- Layer 2 -->
  <circle cx="960" cy="200" r="14" fill="#10b981" fill-opacity="0.15" stroke="#10b981" stroke-width="2"/>
  <circle cx="960" cy="315" r="14" fill="#10b981" fill-opacity="0.15" stroke="#10b981" stroke-width="2"/>
  <circle cx="960" cy="430" r="14" fill="#10b981" fill-opacity="0.15" stroke="#10b981" stroke-width="2"/>

  <!-- Layer 3 -->
  <circle cx="1130" cy="255" r="18" fill="#10b981" fill-opacity="0.25" stroke="#10b981" stroke-width="2.5"/>
  <circle cx="1130" cy="375" r="18" fill="#10b981" fill-opacity="0.25" stroke="#10b981" stroke-width="2.5"/>

  <!-- Connections L1→L2 -->
  <line x1="790" y1="160" x2="946" y2="200" stroke="#10b981" stroke-width="1" stroke-opacity="0.3"/>
  <line x1="790" y1="160" x2="946" y2="315" stroke="#10b981" stroke-width="1" stroke-opacity="0.15"/>
  <line x1="790" y1="240" x2="946" y2="200" stroke="#10b981" stroke-width="1" stroke-opacity="0.3"/>
  <line x1="790" y1="240" x2="946" y2="315" stroke="#10b981" stroke-width="1" stroke-opacity="0.3"/>
  <line x1="790" y1="320" x2="946" y2="200" stroke="#10b981" stroke-width="1" stroke-opacity="0.15"/>
  <line x1="790" y1="320" x2="946" y2="315" stroke="#10b981" stroke-width="1.5" stroke-opacity="0.4"/>
  <line x1="790" y1="320" x2="946" y2="430" stroke="#10b981" stroke-width="1" stroke-opacity="0.15"/>
  <line x1="790" y1="400" x2="946" y2="315" stroke="#10b981" stroke-width="1" stroke-opacity="0.3"/>
  <line x1="790" y1="400" x2="946" y2="430" stroke="#10b981" stroke-width="1" stroke-opacity="0.3"/>
  <line x1="790" y1="480" x2="946" y2="430" stroke="#10b981" stroke-width="1" stroke-opacity="0.3"/>
  <line x1="790" y1="480" x2="946" y2="315" stroke="#10b981" stroke-width="1" stroke-opacity="0.1"/>

  <!-- Connections L2→L3 -->
  <line x1="974" y1="200" x2="1112" y2="255" stroke="#10b981" stroke-width="1.5" stroke-opacity="0.4"/>
  <line x1="974" y1="200" x2="1112" y2="375" stroke="#10b981" stroke-width="1" stroke-opacity="0.2"/>
  <line x1="974" y1="315" x2="1112" y2="255" stroke="#10b981" stroke-width="1.5" stroke-opacity="0.4"/>
  <line x1="974" y1="315" x2="1112" y2="375" stroke="#10b981" stroke-width="1.5" stroke-opacity="0.4"/>
  <line x1="974" y1="430" x2="1112" y2="375" stroke="#10b981" stroke-width="1.5" stroke-opacity="0.4"/>
  <line x1="974" y1="430" x2="1112" y2="255" stroke="#10b981" stroke-width="1" stroke-opacity="0.2"/>

  <!-- Left content -->
  <!-- Top label -->
  <text x="90" y="100" font-family="monospace" font-size="13" font-weight="700" fill="#10b981" letter-spacing="3">LARPER — ISSUE #001</text>

  <!-- Title -->
  <text x="90" y="210" font-family="sans-serif" font-size="88" font-weight="900" fill="#18181b" letter-spacing="-3">What Even</text>
  <text x="90" y="312" font-family="sans-serif" font-size="88" font-weight="900" fill="#18181b" letter-spacing="-3">Is AI?</text>

  <!-- Divider -->
  <rect x="90" y="345" width="60" height="3" rx="1.5" fill="#10b981"/>

  <!-- Subtitle -->
  <text x="90" y="395" font-family="sans-serif" font-size="22" fill="#71717a">Breaking down the basics — no background required.</text>

  <!-- Buzzword pill -->
  <rect x="90" y="430" width="175" height="38" rx="19" fill="#10b981" fill-opacity="0.1"/>
  <text x="178" y="454" font-family="monospace" font-size="13" font-weight="700" fill="#059669" text-anchor="middle">Buzzword: LLM</text>

  <!-- Bottom date -->
  <text x="90" y="586" font-family="monospace" font-size="13" fill="#a1a1aa">April 7, 2026</text>
</svg>
