<svg xmlns="http://www.w3.org/2000/svg" viewBox="0 0 1200 630" width="1200" height="630">
  <defs>
    <linearGradient id="bg" x1="0%" y1="0%" x2="100%" y2="100%">
      <stop offset="0%" style="stop-color:#fafafa"/>
      <stop offset="100%" style="stop-color:#f4f4f5"/>
    </linearGradient>
    <marker id="arrow" viewBox="0 0 10 10" refX="9" refY="5" markerWidth="6" markerHeight="6" orient="auto-start-reverse">
      <path d="M 0 0 L 10 5 L 0 10 z" fill="#10b981" fill-opacity="0.6"/>
    </marker>
  </defs>

  <!-- Background -->
  <rect width="1200" height="630" fill="url(#bg)"/>

  <!-- Agent flow diagram — right side -->
  <!-- Step boxes -->
  <rect x="760" y="120" width="170" height="56" rx="12" fill="white" stroke="#e4e4e7" stroke-width="1.5"/>
  <text x="845" y="150" font-family="monospace" font-size="13" fill="#52525b" text-anchor="middle" font-weight="600">think</text>
  <text x="845" y="166" font-family="monospace" font-size="11" fill="#a1a1aa" text-anchor="middle">decide next step</text>

  <rect x="760" y="235" width="170" height="56" rx="12" fill="white" stroke="#e4e4e7" stroke-width="1.5"/>
  <text x="845" y="265" font-family="monospace" font-size="13" fill="#52525b" text-anchor="middle" font-weight="600">act</text>
  <text x="845" y="281" font-family="monospace" font-size="11" fill="#a1a1aa" text-anchor="middle">run tool / call API</text>

  <rect x="760" y="350" width="170" height="56" rx="12" fill="white" stroke="#e4e4e7" stroke-width="1.5"/>
  <text x="845" y="380" font-family="monospace" font-size="13" fill="#52525b" text-anchor="middle" font-weight="600">observe</text>
  <text x="845" y="396" font-family="monospace" font-size="11" fill="#a1a1aa" text-anchor="middle">read the result</text>

  <rect x="760" y="465" width="170" height="56" rx="12" fill="#10b981" fill-opacity="0.12" stroke="#10b981" stroke-width="1.5"/>
  <text x="845" y="497" font-family="monospace" font-size="13" fill="#059669" text-anchor="middle" font-weight="700">done ✓</text>
  <text x="845" y="513" font-family="monospace" font-size="11" fill="#6ee7b7" text-anchor="middle">goal achieved</text>

  <!-- Arrows between boxes -->
  <line x1="845" y1="176" x2="845" y2="233" stroke="#10b981" stroke-width="2" stroke-opacity="0.5" marker-end="url(#arrow)"/>
  <line x1="845" y1="291" x2="845" y2="348" stroke="#10b981" stroke-width="2" stroke-opacity="0.5" marker-end="url(#arrow)"/>
  <line x1="845" y1="406" x2="845" y2="463" stroke="#10b981" stroke-width="2" stroke-opacity="0.5" marker-end="url(#arrow)"/>

  <!-- Loop-back arrow -->
  <path d="M 932 263 Q 980 263 980 200 Q 980 148 932 148" fill="none" stroke="#10b981" stroke-width="1.5" stroke-opacity="0.3" stroke-dasharray="5,4" marker-end="url(#arrow)"/>
  <text x="995" y="210" font-family="monospace" font-size="11" fill="#a1a1aa">loop</text>

  <!-- Left content -->
  <text x="90" y="100" font-family="monospace" font-size="13" font-weight="700" fill="#10b981" letter-spacing="3">LARPER — ISSUE #002</text>

  <text x="90" y="210" font-family="sans-serif" font-size="84" font-weight="900" fill="#18181b" letter-spacing="-3">AI Agents</text>
  <text x="90" y="306" font-family="sans-serif" font-size="84" font-weight="900" fill="#18181b" letter-spacing="-3">Explained</text>

  <rect x="90" y="338" width="60" height="3" rx="1.5" fill="#10b981"/>

  <text x="90" y="387" font-family="sans-serif" font-size="22" fill="#71717a">When AI stops chatting and starts doing.</text>

  <rect x="90" y="420" width="210" height="38" rx="19" fill="#10b981" fill-opacity="0.1"/>
  <text x="195" y="444" font-family="monospace" font-size="13" font-weight="700" fill="#059669" text-anchor="middle">Buzzword: AI Agent</text>

  <text x="90" y="586" font-family="monospace" font-size="13" fill="#a1a1aa">April 14, 2026</text>
</svg>
