<svg xmlns="http://www.w3.org/2000/svg" viewBox="0 0 1200 630" width="1200" height="630">
  <defs>
    <linearGradient id="bg" x1="0%" y1="0%" x2="100%" y2="100%">
      <stop offset="0%" style="stop-color:#fafafa"/>
      <stop offset="100%" style="stop-color:#f4f4f5"/>
    </linearGradient>
    <marker id="arrow" viewBox="0 0 10 10" refX="9" refY="5" markerWidth="6" markerHeight="6" orient="auto-start-reverse">
      <path d="M 0 0 L 10 5 L 0 10 z" fill="#10b981" fill-opacity="0.6"/>
    </marker>
  </defs>

  <rect width="1200" height="630" fill="url(#bg)"/>

  <rect x="515" y="90" width="170" height="56" rx="12" fill="white" stroke="#e4e4e7" stroke-width="1.5"/>
  <text x="600" y="120" font-family="monospace" font-size="13" fill="#52525b" text-anchor="middle" font-weight="600">think</text>
  <text x="600" y="136" font-family="monospace" font-size="11" fill="#a1a1aa" text-anchor="middle">decide next step</text>

  <rect x="515" y="205" width="170" height="56" rx="12" fill="white" stroke="#e4e4e7" stroke-width="1.5"/>
  <text x="600" y="235" font-family="monospace" font-size="13" fill="#52525b" text-anchor="middle" font-weight="600">act</text>
  <text x="600" y="251" font-family="monospace" font-size="11" fill="#a1a1aa" text-anchor="middle">run tool / call API</text>

  <rect x="515" y="320" width="170" height="56" rx="12" fill="white" stroke="#e4e4e7" stroke-width="1.5"/>
  <text x="600" y="350" font-family="monospace" font-size="13" fill="#52525b" text-anchor="middle" font-weight="600">observe</text>
  <text x="600" y="366" font-family="monospace" font-size="11" fill="#a1a1aa" text-anchor="middle">read the result</text>

  <rect x="515" y="435" width="170" height="56" rx="12" fill="#10b981" fill-opacity="0.12" stroke="#10b981" stroke-width="1.5"/>
  <text x="600" y="467" font-family="monospace" font-size="13" fill="#059669" text-anchor="middle" font-weight="700">done ✓</text>
  <text x="600" y="483" font-family="monospace" font-size="11" fill="#6ee7b7" text-anchor="middle">goal achieved</text>

  <line x1="600" y1="146" x2="600" y2="203" stroke="#10b981" stroke-width="2" stroke-opacity="0.5" marker-end="url(#arrow)"/>
  <line x1="600" y1="261" x2="600" y2="318" stroke="#10b981" stroke-width="2" stroke-opacity="0.5" marker-end="url(#arrow)"/>
  <line x1="600" y1="376" x2="600" y2="433" stroke="#10b981" stroke-width="2" stroke-opacity="0.5" marker-end="url(#arrow)"/>

  <path d="M 687 233 Q 735 233 735 170 Q 735 118 687 118" fill="none" stroke="#10b981" stroke-width="1.5" stroke-opacity="0.3" stroke-dasharray="5,4" marker-end="url(#arrow)"/>
  <text x="750" y="180" font-family="monospace" font-size="11" fill="#a1a1aa">loop</text>
</svg>
