<svg xmlns="http://www.w3.org/2000/svg" viewBox="0 0 1200 630" width="1200" height="630">
  <defs>
    <linearGradient id="bg" x1="0%" y1="0%" x2="100%" y2="100%">
      <stop offset="0%" style="stop-color:#fafafa"/>
      <stop offset="100%" style="stop-color:#f4f4f5"/>
    </linearGradient>
  </defs>

  <rect width="1200" height="630" fill="url(#bg)"/>

  <rect x="400" y="95" width="190" height="440" rx="16" fill="white" stroke="#e4e4e7" stroke-width="1.5"/>
  <text x="495" y="140" font-family="monospace" font-size="11" fill="#a1a1aa" text-anchor="middle" letter-spacing="2">OPEN</text>
  <rect x="460" y="190" width="70" height="55" rx="8" fill="none" stroke="#10b981" stroke-width="2.5"/>
  <path d="M 480 190 Q 480 150 495 150 Q 515 150 515 170" fill="none" stroke="#10b981" stroke-width="2.5" stroke-linecap="round"/>
  <circle cx="495" cy="223" r="6" fill="#10b981"/>
  <text x="495" y="293" font-family="monospace" font-size="11" fill="#10b981" text-anchor="middle">✓ Free to use</text>
  <text x="495" y="315" font-family="monospace" font-size="11" fill="#10b981" text-anchor="middle">✓ See the code</text>
  <text x="495" y="337" font-family="monospace" font-size="11" fill="#10b981" text-anchor="middle">✓ Modify it</text>
  <text x="495" y="359" font-family="monospace" font-size="11" fill="#10b981" text-anchor="middle">✓ Run locally</text>
  <rect x="444" y="385" width="102" height="30" rx="8" fill="#f0fdf4"/>
  <text x="495" y="405" font-family="monospace" font-size="11" fill="#059669" text-anchor="middle" font-weight="700">e.g. Llama</text>

  <rect x="610" y="95" width="190" height="440" rx="16" fill="#18181b"/>
  <text x="705" y="140" font-family="monospace" font-size="11" fill="#52525b" text-anchor="middle" letter-spacing="2">CLOSED</text>
  <rect x="670" y="190" width="70" height="55" rx="8" fill="none" stroke="#71717a" stroke-width="2.5"/>
  <path d="M 690 190 Q 690 150 705 150 Q 725 150 725 190" fill="none" stroke="#71717a" stroke-width="2.5" stroke-linecap="round"/>
  <circle cx="705" cy="223" r="6" fill="#71717a"/>
  <text x="705" y="293" font-family="monospace" font-size="11" fill="#71717a" text-anchor="middle">✗ API only</text>
  <text x="705" y="315" font-family="monospace" font-size="11" fill="#71717a" text-anchor="middle">✗ No weights</text>
  <text x="705" y="337" font-family="monospace" font-size="11" fill="#71717a" text-anchor="middle">✗ Pay to use</text>
  <text x="705" y="359" font-family="monospace" font-size="11" fill="#71717a" text-anchor="middle">✗ Black box</text>
  <rect x="654" y="385" width="102" height="30" rx="8" fill="#27272a"/>
  <text x="705" y="405" font-family="monospace" font-size="11" fill="#a1a1aa" text-anchor="middle" font-weight="700">e.g. GPT-4</text>
</svg>
