<svg xmlns="http://www.w3.org/2000/svg" viewBox="0 0 1200 630" width="1200" height="630">
  <defs>
    <linearGradient id="bg" x1="0%" y1="0%" x2="100%" y2="100%">
      <stop offset="0%" style="stop-color:#fafafa"/>
      <stop offset="100%" style="stop-color:#f4f4f5"/>
    </linearGradient>
  </defs>

  <rect width="1200" height="630" fill="url(#bg)"/>

  <rect x="390" y="80" width="420" height="430" rx="16" fill="white" stroke="#e4e4e7" stroke-width="1.5"/>

  <text x="410" y="115" font-family="monospace" font-size="11" fill="#a1a1aa" letter-spacing="2">ALPHA GENERATION — MODEL vs MARKET</text>
  <line x1="410" y1="122" x2="790" y2="122" stroke="#f4f4f5" stroke-width="1"/>

  <line x1="410" y1="180" x2="790" y2="180" stroke="#f4f4f5" stroke-width="1"/>
  <line x1="410" y1="240" x2="790" y2="240" stroke="#f4f4f5" stroke-width="1"/>
  <line x1="410" y1="300" x2="790" y2="300" stroke="#f4f4f5" stroke-width="1"/>
  <line x1="410" y1="360" x2="790" y2="360" stroke="#f4f4f5" stroke-width="1"/>
  <line x1="410" y1="420" x2="790" y2="420" stroke="#e4e4e7" stroke-width="1"/>

  <text x="404" y="184" font-family="monospace" font-size="10" fill="#a1a1aa" text-anchor="end">+30%</text>
  <text x="404" y="244" font-family="monospace" font-size="10" fill="#a1a1aa" text-anchor="end">+20%</text>
  <text x="404" y="304" font-family="monospace" font-size="10" fill="#a1a1aa" text-anchor="end">+10%</text>
  <text x="404" y="364" font-family="monospace" font-size="10" fill="#a1a1aa" text-anchor="end">0%</text>

  <line x1="420" y1="360" x2="780" y2="315" stroke="#d4d4d8" stroke-width="1.5" stroke-dasharray="6,4"/>
  <text x="785" y="319" font-family="monospace" font-size="10" fill="#a1a1aa">market</text>

  <polyline points="420,390 495,355 570,310 645,260 720,205 780,162" fill="none" stroke="#10b981" stroke-width="2.5" stroke-linecap="round" stroke-linejoin="round"/>
  <polygon points="420,390 495,355 570,310 645,260 720,205 780,162 780,420 420,420" fill="#10b981" fill-opacity="0.06"/>

  <circle cx="420" cy="390" r="4" fill="white" stroke="#10b981" stroke-width="2"/>
  <circle cx="495" cy="355" r="4" fill="white" stroke="#10b981" stroke-width="2"/>
  <circle cx="570" cy="310" r="4" fill="white" stroke="#10b981" stroke-width="2"/>
  <circle cx="645" cy="260" r="4" fill="white" stroke="#10b981" stroke-width="2"/>
  <circle cx="720" cy="205" r="5" fill="#10b981" stroke="white" stroke-width="2"/>
  <circle cx="780" cy="162" r="5" fill="#10b981" stroke="white" stroke-width="2"/>

  <rect x="737" y="140" width="66" height="22" rx="6" fill="#10b981"/>
  <text x="770" y="155" font-family="monospace" font-size="10" fill="white" text-anchor="middle" font-weight="700">LangAlpha</text>

  <text x="420" y="438" font-family="monospace" font-size="10" fill="#a1a1aa" text-anchor="middle">Jan</text>
  <text x="570" y="438" font-family="monospace" font-size="10" fill="#a1a1aa" text-anchor="middle">Feb</text>
  <text x="720" y="438" font-family="monospace" font-size="10" fill="#a1a1aa" text-anchor="middle">Mar</text>
  <text x="780" y="438" font-family="monospace" font-size="10" fill="#a1a1aa" text-anchor="middle">Apr</text>
</svg>
